<svg width="87" height="37" viewBox="0 0 87 37" fill="none" xmlns="http://www.w3.org/2000/svg">
<path d="M28.908 13.356C29.748 13.356 30.168 13.464 30.168 13.68C30.168 13.92 29.748 14.112 28.908 14.256C28.068 14.4 27.348 14.472 26.748 14.472C25.068 20.664 23.88 24.504 23.184 25.992C21.408 29.76 19.488 32.448 17.424 34.056C15.36 35.664 13.308 36.468 11.268 36.468C9.13199 36.468 7.46399 35.724 6.26399 34.236C5.80799 33.684 5.57999 33.156 5.57999 32.652C5.60399 32.412 5.67599 32.28 5.79599 32.256C5.98799 32.256 6.21599 32.436 6.47999 32.796C6.88799 33.348 7.23599 33.78 7.52399 34.092C7.83599 34.404 8.27999 34.716 8.85599 35.028C9.45599 35.34 10.08 35.496 10.728 35.496C12.432 35.496 14.064 34.908 15.624 33.732C17.184 32.556 18.516 31.056 19.62 29.232C20.724 27.408 21.648 25.56 22.392 23.688C23.136 21.84 23.7 20.064 24.084 18.36C23.076 20.304 21.168 21.936 18.36 23.256C15.552 24.576 12.72 25.236 9.86399 25.236C6.83999 25.236 4.43999 24.372 2.66399 22.644C0.887991 20.892 -8.52346e-06 18.732 -8.52346e-06 16.164C-8.52346e-06 14.652 0.263991 13.188 0.791991 11.772C1.31999 10.356 2.03999 9.084 2.95199 7.956C3.88799 6.804 4.97999 5.76 6.22799 4.824C7.47599 3.864 8.80799 3.072 10.224 2.448C11.664 1.8 13.152 1.296 14.688 0.936002C16.248 0.576001 17.784 0.396 19.296 0.396C19.632 0.396 19.968 0.408001 20.304 0.432002C22.032 0.528001 23.436 0.792 24.516 1.224C25.62 1.656 26.316 2.1 26.604 2.556C26.748 2.796 26.82 3.012 26.82 3.204C26.82 3.3 26.796 3.408 26.748 3.528C26.7 3.624 26.64 3.708 26.568 3.78C26.52 3.828 26.436 3.912 26.316 4.032C26.196 4.152 26.112 4.248 26.064 4.32C25.992 4.416 25.908 4.548 25.812 4.716C25.716 4.86 25.62 5.004 25.524 5.148C25.452 5.292 25.368 5.436 25.272 5.58C25.176 5.7 25.08 5.808 24.984 5.904C24.912 5.976 24.84 6.012 24.768 6.012C24.72 6.012 24.672 6 24.624 5.976C24.6 5.952 24.576 5.916 24.552 5.868V5.832C24.552 5.664 24.636 5.412 24.804 5.076C24.972 4.716 25.056 4.416 25.056 4.176C25.056 3.816 24.9 3.42 24.588 2.988C23.844 1.956 22.296 1.332 19.944 1.116C19.656 1.092 19.344 1.08 19.008 1.08C18.408 1.08 17.76 1.116 17.064 1.188C16.392 1.26 15.636 1.404 14.796 1.62C13.98 1.812 13.152 2.064 12.312 2.376C11.496 2.664 10.656 3.06 9.79199 3.564C8.92799 4.044 8.12399 4.596 7.37999 5.22C6.63599 5.82 5.91599 6.564 5.21999 7.452C4.52399 8.316 3.93599 9.252 3.45599 10.26C2.49599 12.276 2.01599 14.22 2.01599 16.092C2.01599 18.444 2.87999 20.364 4.60799 21.852C6.33599 23.316 8.30399 24.048 10.512 24.048C14.088 24.048 17.004 23.292 19.26 21.78C21.54 20.244 23.448 17.868 24.984 14.652C22.944 14.772 19.68 14.832 15.192 14.832C14.784 14.832 14.448 14.712 14.184 14.472C13.944 14.208 13.824 13.92 13.824 13.608C13.824 13.296 14.064 13.02 14.544 12.78C15.048 12.54 15.48 12.42 15.84 12.42C15.864 12.42 15.888 12.42 15.912 12.42C16.056 12.42 16.14 12.468 16.164 12.564C16.164 12.588 16.152 12.612 16.128 12.636C16.008 12.78 15.924 12.9 15.876 12.996C15.852 13.092 15.9 13.164 16.02 13.212C16.284 13.212 17.052 13.236 18.324 13.284C19.596 13.308 21.096 13.332 22.824 13.356C24.576 13.356 26.016 13.356 27.144 13.356C27.912 13.356 28.5 13.356 28.908 13.356ZM41.4996 12.852C41.9556 12.924 42.1836 13.056 42.1836 13.248C42.1836 13.44 42.0036 13.632 41.6436 13.824C41.2836 13.992 40.9596 14.076 40.6716 14.076C40.6716 16.884 39.9396 19.284 38.4756 21.276C37.0116 23.268 35.5596 24.264 34.1196 24.264C32.7276 24.264 32.0316 23.256 32.0316 21.24C32.0316 20.688 32.0796 20.136 32.1756 19.584C32.2956 18.96 32.5116 18.156 32.8236 17.172C33.1356 16.188 33.5436 15.12 34.0476 13.968C34.5516 12.816 35.1636 11.844 35.8836 11.052C36.6276 10.236 37.3716 9.828 38.1156 9.828H38.3676C38.3676 9.492 38.4636 9.204 38.6556 8.964C38.8476 8.724 39.1116 8.604 39.4476 8.604C39.7836 8.628 40.0836 9.336 40.3476 10.728C40.6116 12.096 40.9956 12.804 41.4996 12.852ZM39.6636 13.788C39.4476 13.668 39.1836 13.248 38.8716 12.528C38.5596 11.784 38.3436 11.412 38.2236 11.412C37.4796 11.412 36.6156 12.516 35.6316 14.724C34.6476 16.908 34.0356 18.636 33.7956 19.908C33.6996 20.46 33.6516 20.964 33.6516 21.42C33.6516 22.596 33.9876 23.184 34.6596 23.184C35.6196 23.184 36.6876 22.212 37.8636 20.268C39.0636 18.3 39.6636 16.14 39.6636 13.788ZM51.6463 1.152C50.3263 3.888 48.9823 7.2 47.6143 11.088C46.2463 14.952 45.2383 18.336 44.5903 21.24C44.5663 21.312 44.5543 21.408 44.5543 21.528C44.5543 21.816 44.6743 21.96 44.9143 21.96C45.0583 21.96 45.4423 21.78 46.0663 21.42C46.7143 21.06 47.1223 20.88 47.2903 20.88C47.4343 20.88 47.5423 20.928 47.6143 21.024C47.6143 21.312 47.0143 21.852 45.8143 22.644C44.6143 23.412 43.7623 23.796 43.2583 23.796C42.8023 23.796 42.5743 23.58 42.5743 23.148C42.5743 22.908 42.6223 22.656 42.7183 22.392C43.3423 20.688 43.9183 18.996 44.4463 17.316C44.9983 15.636 45.6223 13.644 46.3183 11.34C47.0143 9.012 47.5303 7.296 47.8663 6.192C47.9383 5.976 47.9743 5.76 47.9743 5.544C47.9743 5.448 47.9503 5.364 47.9023 5.292C47.8783 5.196 47.8663 5.112 47.8663 5.04C47.8663 4.968 47.9023 4.824 47.9743 4.608C48.4543 3.096 48.8983 2.088 49.3063 1.584C49.7143 1.08 50.3143 0.828001 51.1063 0.828001C51.4423 0.828001 51.6223 0.936001 51.6463 1.152ZM65.0319 0.252002C65.1039 0.300001 65.1399 0.408001 65.1399 0.576C65.1399 0.960001 64.9479 1.68 64.5639 2.736C64.2039 3.768 63.6879 5.124 63.0159 6.804C62.3679 8.46 61.8639 9.816 61.5039 10.872C61.5279 10.848 61.5519 10.836 61.5759 10.836C61.6719 10.836 61.7679 10.92 61.8639 11.088C61.9839 11.256 62.0439 11.412 62.0439 11.556C62.0439 11.7 61.9239 11.772 61.6839 11.772C61.3719 11.772 61.2039 11.736 61.1799 11.664C60.6999 12.744 60.0879 14.496 59.3439 16.92C58.6239 19.344 58.2639 20.832 58.2639 21.384C58.2639 21.936 58.4199 22.212 58.7319 22.212C59.0919 22.212 59.5119 22.008 59.9919 21.6C60.4719 21.168 60.8919 20.736 61.2519 20.304C61.6359 19.872 61.8639 19.656 61.9359 19.656C62.0079 19.656 62.0439 19.716 62.0439 19.836C62.0439 19.908 62.0199 20.004 61.9719 20.124C61.9479 20.244 61.9119 20.352 61.8639 20.448C61.8399 20.52 61.8159 20.556 61.7919 20.556C61.2399 21.108 60.4719 21.744 59.4879 22.464C58.5039 23.16 57.7359 23.508 57.1839 23.508C56.7279 23.508 56.4999 23.256 56.4999 22.752C56.4999 21.456 56.9559 19.476 57.8679 16.812C56.8359 18.276 55.5759 19.812 54.0879 21.42C52.6239 23.028 51.4719 23.832 50.6319 23.832C50.1279 23.832 49.8759 23.472 49.8759 22.752C49.8759 21.72 50.2359 20.232 50.9559 18.288C51.6759 16.32 52.5279 14.544 53.5119 12.96C54.5199 11.352 55.3599 10.548 56.0319 10.548H56.1759C56.3439 10.548 56.5359 10.464 56.7519 10.296C56.9919 10.104 57.2439 10.008 57.5079 10.008C57.8679 10.008 58.3719 10.104 59.0199 10.296C59.6919 10.488 60.0519 10.584 60.0999 10.584C60.1239 10.584 60.1359 10.572 60.1359 10.548C61.8639 5.892 62.7519 3.492 62.7999 3.348C62.5359 3.348 62.4039 3.204 62.4039 2.916C62.4039 2.244 62.7639 1.368 63.4839 0.288002C63.5799 0.0960011 63.7719 9.53674e-07 64.0599 9.53674e-07C64.3719 9.53674e-07 64.6959 0.0840013 65.0319 0.252002ZM59.8839 11.376C59.8839 11.112 59.1759 10.98 57.7599 10.98C57.3519 10.98 57.0519 11.004 56.8599 11.052C56.3319 11.196 55.3119 12.648 53.7999 15.408C52.3119 18.168 51.5679 20.184 51.5679 21.456C51.5679 21.84 51.6879 22.032 51.9279 22.032C52.1679 22.032 52.5159 21.84 52.9719 21.456C53.4279 21.072 53.8479 20.664 54.2319 20.232C54.6159 19.8 55.0359 19.332 55.4919 18.828C55.9479 18.3 56.1879 18.012 56.2119 17.964C56.8599 17.244 57.4479 16.404 57.9759 15.444C58.5279 14.46 58.9719 13.548 59.3079 12.708C59.6679 11.868 59.8599 11.424 59.8839 11.376ZM72.6631 12.384C72.8071 13.128 72.8791 13.728 72.8791 14.184C72.8791 14.712 72.6991 15.168 72.3391 15.552C71.9791 15.912 71.5111 16.176 70.9351 16.344C70.3591 16.488 69.8431 16.596 69.3871 16.668C68.9311 16.716 68.4991 16.74 68.0911 16.74C67.8511 16.74 67.5751 16.74 67.2631 16.74C66.9751 16.716 66.8191 16.704 66.7951 16.704C66.0031 18.72 65.6071 20.304 65.6071 21.456C65.6071 22.416 65.9671 22.896 66.6871 22.896C67.1911 22.896 67.7791 22.584 68.4511 21.96C69.1231 21.312 69.7111 20.676 70.2151 20.052C70.7191 19.404 71.0191 19.08 71.1151 19.08C71.2831 19.08 71.3671 19.176 71.3671 19.368C71.3671 20.04 70.7071 20.976 69.3871 22.176C68.0671 23.352 67.0351 23.94 66.2911 23.94C65.6911 23.94 65.1391 23.76 64.6351 23.4C64.1551 23.016 63.9151 22.392 63.9151 21.528C63.9151 21.264 63.9511 20.952 64.0231 20.592C64.1911 19.68 64.4071 18.792 64.6711 17.928C64.9591 17.064 65.1151 16.536 65.1391 16.344C64.7791 16.248 64.5991 16.056 64.5991 15.768C64.5991 15.504 64.8031 15.372 65.2111 15.372H65.4631C66.4231 13.476 66.9751 12.384 67.1191 12.096C67.7911 10.824 69.0751 10.188 70.9711 10.188C71.7871 10.188 72.3511 10.92 72.6631 12.384ZM71.3671 14.112C71.3671 13.512 71.3071 12.996 71.1871 12.564C71.0671 12.132 70.9231 11.832 70.7551 11.664C70.6111 11.496 70.4551 11.412 70.2871 11.412C69.8071 11.412 69.2311 11.928 68.5591 12.96C67.9111 13.992 67.4311 14.904 67.1191 15.696C67.1671 15.696 67.3591 15.708 67.6951 15.732C68.0311 15.756 68.3191 15.768 68.5591 15.768C69.5431 15.768 70.2511 15.66 70.6831 15.444C71.1151 15.228 71.3431 14.784 71.3671 14.112ZM86.5606 10.188C85.3366 12.228 84.1966 14.568 83.1406 17.208C82.0846 19.848 81.5566 21.828 81.5566 23.148C81.5566 23.58 81.6526 23.796 81.8446 23.796C81.9166 23.796 82.1446 23.676 82.5286 23.436C82.9366 23.196 83.1766 23.076 83.2486 23.076C83.3926 23.076 83.4646 23.148 83.4646 23.292C83.4646 23.58 83.2006 23.904 82.6726 24.264C82.1446 24.624 81.6166 24.804 81.0886 24.804C80.3926 24.804 80.0446 24.288 80.0446 23.256C80.0446 22.32 80.2366 21.228 80.6206 19.98C81.0046 18.732 81.6046 17.136 82.4206 15.192C83.2366 13.248 83.6446 12.264 83.6446 12.24C83.7646 11.928 83.8246 11.688 83.8246 11.52C83.8246 11.4 83.7886 11.34 83.7166 11.34C83.5966 11.34 83.3326 11.556 82.9246 11.988C81.8926 13.14 80.4166 15.108 78.4966 17.892C76.5766 20.676 75.5926 22.392 75.5446 23.04C75.5206 23.208 75.2926 23.436 74.8606 23.724C74.4286 24.036 74.0686 24.192 73.7806 24.192C73.6126 24.192 73.5166 24.108 73.4926 23.94C73.5406 24.012 73.9846 22.812 74.8246 20.34C75.6886 17.868 76.3006 16.08 76.6606 14.976C76.7566 14.688 76.8046 14.472 76.8046 14.328C76.8046 14.232 76.7806 14.148 76.7326 14.076C76.7086 13.98 76.6966 13.908 76.6966 13.86C76.6966 13.764 76.7326 13.608 76.8046 13.392C77.3566 11.856 77.8246 10.848 78.2086 10.368C78.5926 9.864 79.1806 9.612 79.9726 9.612C80.2846 9.612 80.4646 9.72 80.5126 9.936C78.5446 13.968 77.3686 16.848 76.9846 18.576C80.9446 12.192 83.9806 9 86.0926 9C86.5726 9 86.8126 9.156 86.8126 9.468C86.8126 9.684 86.7286 9.924 86.5606 10.188Z" fill="#FED136"/>
</svg>
